# xmcd
#
# Track frame offsets:
# 150
# 15470
# 30437
# 49636
# 64487
# 76712
# 95881
# 116256
# 136883
# 154412
# 167227
# 181296
# 202516
# 223916
#
# Disc length: 3242 seconds
#
#
# Revision: 0
# Processed by: cddbd v1.5.1PL0 Copyright (c) Steve Scherf et al.
# Submitted via: FreeRIP 2.90 
#
DISCID=b50ca80e
DTITLE=Marquinhos and Sorocaba - Promocional
DYEAR=1900
DGENRE=Country
TTITLE0=Volta Lá Pro Seu Lugar
TTITLE1=Mulher do Paraná
TTITLE2=Esperando Você Voltar
TTITLE3=Fazenda da Esperança
TTITLE4=Garanhão
TTITLE5=Mil Fotografias
TTITLE6=Não Sei Como Viver
TTITLE7=Dixie Land
TTITLE8=Brilho no Olhar
TTITLE9=Pra Sempre Seu Homem
TTITLE10=Mulher do Paraná-AC
TTITLE11=Companheiro-AC
TTITLE12=Noite Enluarada-AC
TTITLE13=Volta Lá Pro Seu Lugar-AC
EXTD=
EXTT0=
EXTT1=
EXTT2=
EXTT3=
EXTT4=
EXTT5=
EXTT6=
EXTT7=
EXTT8=
EXTT9=
EXTT10=
EXTT11=
EXTT12=
EXTT13=
PLAYORDER=
